<svg xmlns="http://www.w3.org/2000/svg" width="83.534" height="92.555" viewBox="0 0 83.534 92.555"><defs><style>.a{fill:#81c4ce;}.b{fill:#394ec9;}.c,.d,.e{fill:none;stroke:#586597;stroke-linecap:round;stroke-linejoin:round;}.c{stroke-width:0.53px;}.d{stroke-width:0.53px;}.e{stroke-width:0.53px;}</style></defs><g transform="translate(263.343 -1282.526)"><ellipse class="a" cx="16.907" cy="41.502" rx="16.907" ry="41.502" transform="translate(-263.078 1345.697) rotate(-90)"/><ellipse class="a" cx="16.847" cy="43.302" rx="16.847" ry="43.302" transform="matrix(0.866, 0.5, -0.5, 0.866, -214.484, 1282.887)"/><ellipse class="a" cx="16.847" cy="43.302" rx="16.847" ry="43.302" transform="matrix(-0.866, 0.5, -0.5, -0.866, -185.386, 1357.884)"/><path class="b" d="M-249.574,1289.465a7.684,7.684,0,0,0-7.683,7.685,7.683,7.683,0,0,0,7.683,7.684,7.683,7.683,0,0,0,7.683-7.682A7.683,7.683,0,0,0-249.574,1289.465Z" transform="translate(27.999 31.641)"/><g transform="translate(-263.078 1282.887)"><ellipse class="c" cx="16.907" cy="41.502" rx="16.907" ry="41.502" transform="translate(0 62.81) rotate(-90)"/><ellipse class="d" cx="16.847" cy="43.302" rx="16.847" ry="43.302" transform="matrix(-0.866, 0.5, -0.5, -0.866, 77.693, 74.997)"/><ellipse class="e" cx="16.847" cy="43.302" rx="16.847" ry="43.302" transform="matrix(0.866, 0.5, -0.5, 0.866, 48.594, 0)"/></g></g></svg>